<?xml version="1.0" encoding="UTF-8" standalone="no"?>
<svg
   xmlns:dc="http://purl.org/dc/elements/1.1/"
   xmlns:cc="http://creativecommons.org/ns#"
   xmlns:rdf="http://www.w3.org/1999/02/22-rdf-syntax-ns#"
   xmlns:svg="http://www.w3.org/2000/svg"
   xmlns="http://www.w3.org/2000/svg"
   xmlns:sodipodi="http://sodipodi.sourceforge.net/DTD/sodipodi-0.dtd"
   xmlns:inkscape="http://www.inkscape.org/namespaces/inkscape"
   width="505.548"
   height="50.151"
   viewBox="0 0 505.548 50.151"
   id="svg2"
   version="1.1"
   inkscape:version="0.91+devel r"
   sodipodi:docname="preload.svg">
  <metadata
     id="metadata10">
    <rdf:RDF>
      <cc:Work
         rdf:about="">
        <dc:format>image/svg+xml</dc:format>
        <dc:type
           rdf:resource="http://purl.org/dc/dcmitype/StillImage" />
      </cc:Work>
    </rdf:RDF>
  </metadata>
  <defs
     id="defs8" />
  <sodipodi:namedview
     pagecolor="#ffffff"
     bordercolor="#666666"
     borderopacity="1"
     objecttolerance="10"
     gridtolerance="10"
     guidetolerance="10"
     inkscape:pageopacity="0"
     inkscape:pageshadow="2"
     inkscape:window-width="1920"
     inkscape:window-height="1019"
     id="namedview6"
     showgrid="false"
     inkscape:zoom="1.9301972"
     inkscape:cx="152.58842"
     inkscape:cy="45.942221"
     inkscape:window-x="-2"
     inkscape:window-y="-3"
     inkscape:window-maximized="1"
     inkscape:current-layer="svg2" />
  <path
     d="m 28.015,32.546 c 0,0.723 -0.295,1.194 -0.85,1.49 -1.102,0.635 -3.318,0.892 -4.85,0.892 -3.917,0 -7.788,-1.276 -11.15,-4.55 -1.488,-1.45 -4.513,-5.79 -4.513,-11.79 0,-4.98 1.745,-8.8519995 4.213,-10.8099995 3.233,-2.554 6.424,-2.81 9.11,-2.81 5.49,0 8.936,1.832 10,3.448 0.64,1.022 0.848,2.2139995 0.895,2.8099995 0.043,0.382 0.085,0.637 0.295,0.637 0.3,0 0.385,-0.217 0.385,-0.894 0,-4.2559995 0.295,-5.4469995 0.295,-6.0439995 0,-0.17 -0.08,-0.34 -0.51,-0.383 -1.064,-0.04 -2.552,-0.216 -3.446,-0.424 -0.81,-0.173 -3.83,-0.724 -6.51,-0.724 -3.277,0 -7.49,0.296 -11.323,2.678 C 6.266,8.4560005 2.952,13.262 2.952,20.072 c 0,5.32 2.463,9.875 5.06,12.132 4.723,4.127 10.77,4.552 14.003,4.552 2.473,0 6.296,-0.467 9.02,-1.915 0.514,-0.3 0.557,-0.384 0.557,-2.3 l 0,-4.768 c 0,-1.783 0,-3.063 0.085,-4.424 0.086,-1.49 0.423,-2.214 1.574,-2.425 0.51,-0.088 0.765,-0.13 1.06,-0.13 0.174,0 0.343,-0.084 0.343,-0.253 0,-0.257 -0.212,-0.34 -0.682,-0.34 -1.277,0 -3.96,0.125 -4.168,0.125 -0.216,0 -2.89,-0.124 -4.807,-0.124 -0.47,0 -0.685,0.083 -0.685,0.34 0,0.17 0.176,0.253 0.342,0.253 0.383,0 1.108,0.042 1.45,0.13 1.698,0.468 1.91,0.937 1.91,4.384 l 0,7.235 z M 54.78,31.48 c -0.766,2.13 -1.617,3.747 -3.57,4.004 -0.343,0.043 -0.938,0.084 -1.237,0.084 -0.214,0 -0.38,0.083 -0.38,0.253 0,0.257 0.25,0.34 0.808,0.34 1.998,0 4.34,-0.127 4.808,-0.127 0.47,0 2.297,0.127 3.32,0.127 0.382,0 0.636,-0.083 0.636,-0.34 0,-0.17 -0.126,-0.253 -0.423,-0.253 l -0.427,0 c -0.723,0 -1.617,-0.385 -1.617,-1.233 0,-0.767 0.214,-1.788 0.6,-2.854 l 2.55,-7.53 c 0.083,-0.214 0.216,-0.343 0.426,-0.343 l 9.15,0 c 0.213,0 0.298,0.09 0.38,0.257 l 3.96,10.47 c 0.257,0.68 0,1.064 -0.257,1.15 -0.17,0.042 -0.295,0.13 -0.295,0.294 0,0.256 0.466,0.256 1.274,0.3 2.94,0.082 6.044,0.082 6.68,0.082 0.472,0 0.852,-0.083 0.852,-0.34 0,-0.208 -0.17,-0.253 -0.423,-0.253 -0.428,0 -1.065,-0.042 -1.703,-0.257 -0.894,-0.253 -2.13,-0.936 -3.66,-4.725 -2.597,-6.46 -9.278,-24.0399995 -9.918,-25.6579995 -0.51,-1.32 -0.678,-1.53 -0.934,-1.53 -0.256,0 -0.428,0.253 -0.937,1.657 L 54.783,31.481 Z m 5.958,-9.402 c -0.126,0 -0.21,-0.09 -0.126,-0.3 l 3.747,-11.49 c 0.21,-0.6399995 0.42,-0.6399995 0.634,0 l 4.042,11.49 c 0.047,0.17 0.047,0.3 -0.167,0.3 l -8.132,0 z m 41.194,1.742 c 0,4.088 0,7.45 -0.214,9.238 -0.17,1.234 -0.385,2.168 -1.234,2.34 -0.383,0.085 -0.892,0.17 -1.277,0.17 -0.257,0 -0.34,0.125 -0.34,0.252 0,0.257 0.212,0.34 0.682,0.34 1.273,0 3.955,-0.127 3.998,-0.127 0.21,0 2.89,0.126 5.236,0.126 0.466,0 0.68,-0.127 0.68,-0.34 0,-0.127 -0.085,-0.253 -0.34,-0.253 -0.383,0 -1.32,-0.084 -1.92,-0.17 -1.273,-0.17 -1.53,-1.106 -1.656,-2.34 -0.214,-1.788 -0.214,-5.15 -0.214,-9.237 l 0,-1.023 c 0,-0.21 0.088,-0.336 0.297,-0.336 l 5.24,0.083 c 0.253,0 0.38,0.086 0.552,0.253 0.85,1.112 2.848,3.964 4.636,6.302 2.425,3.19 3.918,5.276 5.744,6.257 1.108,0.596 2.168,0.805 4.556,0.805 l 3.02,0 c 0.765,0 1.02,-0.083 1.02,-0.34 0,-0.127 -0.17,-0.253 -0.38,-0.253 -0.256,0 -0.853,0 -1.66,-0.127 -1.066,-0.172 -2.897,-0.64 -5.192,-3.065 -2.473,-2.64 -5.364,-6.425 -8.854,-10.895 3.833,-3.533 5.15,-6.682 5.15,-9.834 0,-2.9329995 -1.873,-5.0199995 -2.94,-5.7869995 -2.253,-1.617 -5.1,-1.87 -7.783,-1.87 -1.32,0 -4.556,0.13 -5.025,0.13 -0.212,0 -2.894,-0.13 -4.81,-0.13 -0.466,0 -0.68,0.086 -0.68,0.34 0,0.175 0.17,0.256 0.34,0.256 0.383,0 1.108,0.045 1.448,0.128 1.403,0.3 1.745,0.978 1.828,2.426 0.09,1.36 0.09,2.557 0.09,9.1899995 l 0,7.49 0.002,0 z m 3.403,-17.7019995 c 0,-0.258 0.13,-0.426 0.34,-0.51 0.426,-0.127 1.574,-0.257 2.853,-0.257 4.555,0 7.36,3.193 7.36,8.5169995 0,3.233 -1.105,5.53 -2.595,6.548 -0.977,0.68 -2.168,0.812 -3.19,0.812 -1.872,0 -3.83,-0.3 -4.47,-0.682 -0.21,-0.13 -0.298,-0.296 -0.298,-0.512 l 0,-13.9159995 z m 51.575,-0.3 5.366,0.088 c 4.082,0.083 5.107,1.06 5.23,2.34 l 0.044,0.468 c 0.043,0.596 0.13,0.724 0.343,0.724 0.166,0 0.3,-0.17 0.3,-0.554 0,-0.468 0.128,-3.404 0.128,-4.683 0,-0.254 0,-0.51 -0.213,-0.51 -0.174,0 -0.557,0.127 -1.194,0.21 -0.68,0.13 -1.66,0.22 -3.02,0.22 l -15.964,0 c -0.51,0 -2.126,-0.09 -3.362,-0.22 -1.146,-0.083 -1.572,-0.505 -1.87,-0.505 -0.17,0 -0.34,0.55 -0.427,0.805 -0.082,0.343 -0.93,4.004 -0.93,4.425 0,0.258 0.082,0.386 0.208,0.386 0.166,0 0.3,-0.085 0.426,-0.424 0.13,-0.3 0.257,-0.597 0.725,-1.322 0.68,-1.02 1.697,-1.318 4.34,-1.36 l 6.296,-0.087 0,17.9999995 c 0,4.09 0,7.45 -0.214,9.24 -0.17,1.233 -0.38,2.167 -1.234,2.338 -0.383,0.086 -0.892,0.17 -1.277,0.17 -0.256,0 -0.337,0.126 -0.337,0.253 0,0.257 0.21,0.34 0.68,0.34 1.275,0 3.956,-0.127 4.17,-0.127 0.212,0 2.896,0.126 5.236,0.126 0.465,0 0.68,-0.127 0.68,-0.34 0,-0.127 -0.086,-0.253 -0.34,-0.253 -0.384,0 -1.32,-0.084 -1.915,-0.17 -1.28,-0.17 -1.53,-1.106 -1.66,-2.34 -0.215,-1.788 -0.215,-5.15 -0.215,-9.237 l 0,-17.9999995 z M 186.228,20.033 c 0,7.66 4.855,16.725 16.515,16.725 10.252,0 16.98,-7.872 16.98,-17.404 0,-9.9159995 -7.15,-15.9569995 -16.723,-15.9569995 -11.75,0 -16.772,9.7419995 -16.772,16.6359995 z m 4.046,-1.19 c 0,-9.3219995 5.316,-14.0029995 12.425,-14.0029995 6.723,0 12.938,5.4899995 12.938,15.7039995 0,12.385 -7.918,14.598 -11.748,14.598 -7.657,0 -13.616,-6.387 -13.616,-16.297 z m 54.17,-8.8529995 C 245.806,11.52 250.614,16.885 255.55,22.204 c 4.515,4.854 10.642,11.108 11.108,11.536 2.26,2.254 2.767,2.72 3.105,2.72 0.3,0 0.385,-0.21 0.385,-3.023 l 0.085,-24.9349995 c 0,-2.554 0.167,-3.488 1.574,-3.788 0.514,-0.128 0.808,-0.128 1.022,-0.128 0.3,0 0.465,-0.127 0.465,-0.3 0,-0.253 -0.297,-0.296 -0.765,-0.296 -1.74,0 -3.148,0.13 -3.614,0.13 -0.47,0 -2.51,-0.13 -4.427,-0.13 -0.515,0 -0.857,0.043 -0.857,0.296 0,0.172 0.047,0.3 0.342,0.3 0.342,0 1.322,0.045 2.087,0.213 1.317,0.342 1.617,1.277 1.66,4.043 L 268.186,30.46 c -1.36,-1.404 -5.996,-6.596 -10.214,-11.104 -6.548,-7.024 -12.896,-13.8749995 -13.53,-14.5969995 -0.427,-0.43 -1.15,-1.36 -1.492,-1.36 -0.34,0 -0.466,0.463 -0.466,2.126 L 242.441,29.91 c 0,3.874 -0.214,5.107 -1.275,5.404 -0.642,0.214 -1.407,0.256 -1.747,0.256 -0.215,0 -0.34,0.083 -0.34,0.253 0,0.297 0.258,0.34 0.68,0.34 1.917,0 3.703,-0.128 4.086,-0.128 0.383,0 2.083,0.127 4.513,0.127 0.508,0 0.764,-0.084 0.764,-0.34 0,-0.17 -0.128,-0.254 -0.34,-0.254 -0.383,0 -1.32,-0.042 -2.128,-0.257 -1.15,-0.342 -1.58,-1.445 -1.66,-4.936 L 244.442,9.9880005 Z M 315.374,16.33 c 0,-6.6329995 0,-7.8299995 0.086,-9.1899995 0.09,-1.492 0.43,-2.215 1.574,-2.427 0.513,-0.083 0.77,-0.128 1.065,-0.128 0.17,0 0.34,-0.08 0.34,-0.257 0,-0.253 -0.208,-0.34 -0.68,-0.34 -1.278,0 -3.96,0.132 -4.17,0.132 -0.213,0 -2.895,-0.13 -4.806,-0.13 -0.47,0 -0.685,0.085 -0.685,0.338 0,0.176 0.17,0.257 0.34,0.257 0.38,0 1.11,0.045 1.446,0.128 1.408,0.3 1.745,0.978 1.83,2.426 0.086,1.36 0.086,2.557 0.086,9.1899995 l 0,12.3 c 0,10.98 -1.317,13.235 -4.085,16.043 -0.385,0.382 -0.98,0.898 -1.49,1.195 -0.384,0.253 -0.593,0.38 -0.593,0.636 0,0.17 0.167,0.254 0.295,0.254 0.128,0 0.213,-0.04 0.296,-0.083 0.426,-0.21 1.106,-0.68 1.657,-1.062 3.447,-2.385 5.323,-4.387 6.215,-6.512 1.274,-3.022 1.274,-5.663 1.274,-12.55 l 0,-10.22 0.002,0 z m 23.02,3.702 c 0,7.66 4.855,16.725 16.515,16.725 10.258,0 16.975,-7.872 16.975,-17.404 0,-9.9159995 -7.147,-15.9569995 -16.722,-15.9569995 -11.745,0 -16.77,9.7419995 -16.77,16.6359995 z m 4.047,-1.19 c 0,-9.3219995 5.317,-14.0029995 12.426,-14.0029995 6.724,0 12.937,5.4899995 12.937,15.7039995 0,12.385 -7.915,14.598 -11.748,14.598 -7.656,0 -13.614,-6.387 -13.614,-16.297 z M 396.613,9.9890005 C 397.978,11.519 402.78,16.884 407.719,22.203 c 4.51,4.854 10.64,11.108 11.106,11.536 2.26,2.254 2.767,2.72 3.11,2.72 0.295,0 0.38,-0.21 0.38,-3.023 l 0.09,-24.9349995 c 0,-2.554 0.167,-3.488 1.575,-3.788 0.508,-0.128 0.802,-0.128 1.016,-0.128 0.3,0 0.466,-0.127 0.466,-0.3 0,-0.253 -0.295,-0.296 -0.765,-0.296 -1.74,0 -3.148,0.13 -3.614,0.13 -0.47,0 -2.51,-0.13 -4.427,-0.13 -0.51,0 -0.854,0.043 -0.854,0.296 0,0.172 0.045,0.3 0.345,0.3 0.337,0 1.317,0.045 2.083,0.213 1.317,0.342 1.617,1.277 1.66,4.043 L 420.358,30.459 c -1.362,-1.404 -6,-6.596 -10.217,-11.104 -6.547,-7.024 -12.89,-13.8749995 -13.528,-14.5969995 -0.428,-0.43 -1.15,-1.36 -1.493,-1.36 -0.34,0 -0.467,0.463 -0.467,2.126 L 394.61,29.909 c 0,3.874 -0.214,5.107 -1.275,5.404 -0.642,0.214 -1.407,0.256 -1.75,0.256 -0.21,0 -0.338,0.083 -0.338,0.253 0,0.297 0.257,0.34 0.68,0.34 1.916,0 3.702,-0.128 4.085,-0.128 0.385,0 2.088,0.127 4.513,0.127 0.51,0 0.765,-0.084 0.765,-0.34 0,-0.17 -0.128,-0.254 -0.34,-0.254 -0.383,0 -1.32,-0.042 -2.128,-0.257 -1.146,-0.342 -1.574,-1.445 -1.66,-4.936 L 396.612,9.9870005 Z M 450.147,23.819 c 0,4.087 0,7.448 -0.214,9.237 -0.17,1.234 -0.385,2.168 -1.236,2.34 -0.38,0.085 -0.892,0.17 -1.274,0.17 -0.257,0 -0.343,0.125 -0.343,0.252 0,0.257 0.21,0.34 0.68,0.34 0.636,0 1.616,-0.083 2.47,-0.083 0.89,-0.044 1.616,-0.044 1.7,-0.044 0.64,0 1.663,0.043 3.323,0.126 1.657,0.043 4,0.13 7.19,0.13 1.66,0 2.002,0 2.3,-1.108 0.21,-0.89 0.553,-3.786 0.553,-4.123 0,-0.3 0,-0.642 -0.26,-0.642 -0.21,0 -0.294,0.168 -0.377,0.642 -0.3,1.74 -0.81,2.59 -1.922,3.06 -1.103,0.468 -2.977,0.468 -4.085,0.468 -4.168,0 -4.808,-0.554 -4.936,-3.485 -0.04,-0.894 0,-5.833 0,-7.283 l 0,-3.742 c 0,-0.17 0.086,-0.294 0.3,-0.294 0.723,0 4.936,0.082 6.087,0.21 1.655,0.173 2.04,0.894 2.21,1.49 0.172,0.552 0.172,0.98 0.172,1.404 0,0.213 0.085,0.384 0.295,0.384 0.3,0 0.3,-0.47 0.3,-0.807 0,-0.3 0.086,-1.872 0.17,-2.723 0.127,-1.403 0.344,-2.127 0.344,-2.388 0,-0.248 -0.09,-0.335 -0.216,-0.335 -0.17,0 -0.34,0.214 -0.64,0.55 -0.38,0.425 -0.98,0.515 -1.997,0.6 -0.98,0.082 -6.214,0.082 -6.766,0.082 -0.214,0 -0.257,-0.126 -0.257,-0.426 l 0,-11.7469995 c 0,-0.3 0.086,-0.425 0.257,-0.425 0.468,0 5.11,0.043 5.83,0.126 2.297,0.258 2.725,0.77 3.024,1.45 0.21,0.51 0.252,1.234 0.252,1.532 0,0.34 0.086,0.553 0.342,0.553 0.17,0 0.257,-0.254 0.295,-0.468 0.086,-0.51 0.17,-2.384 0.216,-2.81 0.126,-1.19 0.335,-1.703 0.335,-2 0,-0.213 -0.04,-0.382 -0.167,-0.382 -0.213,0 -0.384,0.17 -0.598,0.21 -0.337,0.087 -1.017,0.172 -1.826,0.215 -0.98,0.045 -9.448,0.045 -9.748,0.045 l -1.74,-0.088 c -0.94,-0.043 -2.09,-0.043 -3.067,-0.043 -0.465,0 -0.68,0.086 -0.68,0.34 0,0.175 0.172,0.256 0.34,0.256 0.384,0 1.107,0.045 1.45,0.128 1.402,0.3 1.744,0.978 1.825,2.426 0.09,1.36 0.09,2.557 0.09,9.1899995 l 0,7.492 z m 42.764,12.938 c 2.297,0 4.598,-0.51 6.424,-1.79 2.94,-2.083 3.62,-5.316 3.62,-7.06 0,-3.407 -1.195,-6.044 -6.216,-10.003 l -1.193,-0.934 c -4.085,-3.19 -5.188,-4.726 -5.188,-7.1499995 0,-3.107 2.297,-4.938 5.23,-4.938 3.92,0 5.07,1.788 5.322,2.256 0.256,0.467 0.51,1.617 0.55,2.127 0.048,0.34 0.09,0.554 0.343,0.554 0.214,0 0.3,-0.298 0.3,-0.98 0,-2.894 0.17,-4.297 0.17,-4.513 0,-0.208 -0.082,-0.296 -0.427,-0.296 -0.338,0 -0.68,-0.043 -1.488,-0.214 -1.065,-0.254 -2.297,-0.422 -3.956,-0.422 -5.407,0 -8.812,3.104 -8.812,7.6579995 0,2.896 1.022,5.532 5.53,9.233 l 1.916,1.576 c 3.66,3.02 4.898,4.72 4.898,7.66 0,2.725 -2.002,5.657 -6.087,5.657 -2.853,0 -5.66,-1.19 -6.3,-4.34 -0.127,-0.596 -0.127,-1.19 -0.127,-1.573 0,-0.34 -0.04,-0.468 -0.297,-0.468 -0.216,0 -0.3,0.212 -0.342,0.683 -0.042,0.677 -0.21,2.377 -0.21,4.507 0,1.15 0.04,1.318 0.634,1.62 1.75,0.85 3.71,1.148 5.706,1.148 z"
     id="path4"
     inkscape:connector-curvature="0"
     style="fill:#ffffff" />
</svg>
