<?xml version="1.0" encoding="UTF-8" standalone="no"?>
<!-- Created with Inkscape (http://www.inkscape.org/) -->

<svg
   xmlns:dc="http://purl.org/dc/elements/1.1/"
   xmlns:cc="http://creativecommons.org/ns#"
   xmlns:rdf="http://www.w3.org/1999/02/22-rdf-syntax-ns#"
   xmlns:svg="http://www.w3.org/2000/svg"
   xmlns="http://www.w3.org/2000/svg"
   xmlns:sodipodi="http://sodipodi.sourceforge.net/DTD/sodipodi-0.dtd"
   xmlns:inkscape="http://www.inkscape.org/namespaces/inkscape"
   width="38"
   height="38"
   viewBox="0 0 38.000001 38.000001"
   id="svg6720"
   version="1.1"
   inkscape:version="0.91 r13725"
   sodipodi:docname="back.svg">
  <defs
     id="defs6722" />
  <sodipodi:namedview
     id="base"
     pagecolor="#ffffff"
     bordercolor="#666666"
     borderopacity="1.0"
     inkscape:pageopacity="0.0"
     inkscape:pageshadow="2"
     inkscape:zoom="15.839192"
     inkscape:cx="30.157769"
     inkscape:cy="21.487124"
     inkscape:document-units="px"
     inkscape:current-layer="layer1"
     showgrid="false"
     units="px"
     inkscape:window-width="1920"
     inkscape:window-height="1010"
     inkscape:window-x="-4"
     inkscape:window-y="0"
     inkscape:window-maximized="1" />
  <metadata
     id="metadata6725">
    <rdf:RDF>
      <cc:Work
         rdf:about="">
        <dc:format>image/svg+xml</dc:format>
        <dc:type
           rdf:resource="http://purl.org/dc/dcmitype/StillImage" />
        <dc:title></dc:title>
      </cc:Work>
    </rdf:RDF>
  </metadata>
  <g
     inkscape:label="Layer 1"
     inkscape:groupmode="layer"
     id="layer1"
     transform="translate(0,-1014.3622)">
    <g
       id="g6736"
       transform="matrix(1.0146239,0,0,1.0146321,-772.40667,843.97789)">
      <path
         inkscape:connector-curvature="0"
         id="path3300"
         style="fill:#231f20;fill-opacity:1;fill-rule:nonzero;stroke:none"
         d="m 783.71181,192.86439 -7.47477,-7.47477 7.47477,-7.48501 -1.76298,-1.76639 -9.24799,9.23776 9.24799,9.2514 1.76298,-1.76299" />
      <path
         inkscape:connector-curvature="0"
         id="path3322"
         style="fill:#231f20;fill-opacity:1;fill-rule:nonzero;stroke:none"
         d="m 797.47467,186.65474 -1.25148,0 c 0,4.47395 -1.81072,8.52506 -4.75016,11.47132 -2.93603,2.93944 -6.98373,4.75017 -11.47133,4.75017 -4.48759,0 -8.52506,-1.81073 -11.47814,-4.75017 -2.93603,-2.94626 -4.75016,-6.99737 -4.75016,-11.47132 0,-4.48759 1.81413,-8.5387 4.75016,-11.47815 2.95308,-2.93603 6.99055,-4.75016 11.47814,-4.76039 4.4876,0.0102 8.5353,1.82436 11.47133,4.76039 2.93944,2.93945 4.75016,6.99056 4.75016,11.47815 l 2.50296,0 c 0,-10.35284 -8.37502,-18.72786 -18.72445,-18.73809 -10.33919,0.0102 -18.72785,8.38525 -18.72785,18.73809 0,10.33578 8.38866,18.72445 18.72785,18.72445 10.34943,0 18.72445,-8.38867 18.72445,-18.72445 l -1.25148,0" />
    </g>
  </g>
</svg>
